<svg 
	xmlns="http://www.w3.org/2000/svg" 
	xmlns:xlink="http://www.w3.org/1999/xlink" 
	aria-hidden="true" 
	focusable="false" 
	width="1em" 
	height="1em" 
	style="-ms-transform: rotate(360deg); -webkit-transform: rotate(360deg); transform: rotate(360deg);" 
	preserveAspectRatio="xMidYMid meet" 
	viewBox="0 0 24 24">
	<path fill="black" d="M6 21a1 1 0 0 1-.49-.13A1 1 0 0 1 5 20V5.33A2.28 2.28 0 0 1 7.2 3h9.6A2.28 2.28 0 0 1 19 5.33V20a1 1 0 0 1-.5.86a1 1 0 0 1-1 0l-5.67-3.21l-5.33 3.2A1 1 0 0 1 6 21z"/>
</svg>